<svg xmlns="http://www.w3.org/2000/svg" height="40px" viewBox="0 -960 960 960" width="40px" fill="#133b5e"><path d="M389-577.33ZM360-40l-33.33-33.33V-314H120v-66.67l80-78v-314.66h-46.67V-840H477q-16.21 14.22-29.27 30.94-13.06 16.73-24.06 35.73h-157v340.66l-54.67 52h353.67q8 4.67 16.5 7.84 8.5 3.16 17.83 4.5V-314H393.33v240.67L360-40Zm288.67-608q26.94 0 45.8-18.87 18.86-18.88 18.86-45.84 0-26.96-18.86-45.46t-45.8-18.5q-26.67 0-45.34 18.74-18.66 18.73-18.66 45.5 0 26.76 18.66 45.6Q622-648 648.67-648Zm0 128.67q32.33 0 60.16-15.17 27.84-15.17 45.5-41.17-24.66-13.66-50.95-21.66-26.28-8-54.66-8-28.39 0-54.72 8t-51 21.66q17.67 26 45.5 41.17 27.83 15.17 60.17 15.17Zm.01 63.33q-79.68 0-135.85-55.97-56.16-55.96-56.16-135.36 0-79.96 56.15-136.32Q568.98-840 648.66-840q79.67 0 135.84 56.35 56.17 56.36 56.17 136.32 0 79.4-56.16 135.36Q728.35-456 648.68-456Z"/></svg>